<?xml version="1.0" encoding="UTF-8" standalone="no"?>
<!-- Created with Inkscape (http://www.inkscape.org/) -->

<svg
   xmlns:dc="http://purl.org/dc/elements/1.1/"
   xmlns:cc="http://creativecommons.org/ns#"
   xmlns:rdf="http://www.w3.org/1999/02/22-rdf-syntax-ns#"
   xmlns:svg="http://www.w3.org/2000/svg"
   xmlns="http://www.w3.org/2000/svg"
   xmlns:sodipodi="http://sodipodi.sourceforge.net/DTD/sodipodi-0.dtd"
   xmlns:inkscape="http://www.inkscape.org/namespaces/inkscape"
   version="1.1"
   id="svg3699"
   xml:space="preserve"
   width="226.772"
   height="226.772"
   viewBox="0 0 226.772 226.772"
   sodipodi:docname="cesam_logo_def.svg"
   inkscape:version="0.92.2 (5c3e80d, 2017-08-06)"><metadata
     id="metadata3705"><rdf:RDF><cc:Work
         rdf:about=""><dc:format>image/svg+xml</dc:format><dc:type
           rdf:resource="http://purl.org/dc/dcmitype/StillImage" /><dc:title></dc:title></cc:Work></rdf:RDF></metadata><defs
     id="defs3703"><clipPath
       clipPathUnits="userSpaceOnUse"
       id="clipPath3715"><path
         d="M 0,170.079 H 170.079 V 0 H 0 Z"
         id="path3713"
         inkscape:connector-curvature="0" /></clipPath></defs><sodipodi:namedview
     pagecolor="#ffffff"
     bordercolor="#666666"
     borderopacity="1"
     objecttolerance="10"
     gridtolerance="10"
     guidetolerance="10"
     inkscape:pageopacity="0"
     inkscape:pageshadow="2"
     inkscape:window-width="1076"
     inkscape:window-height="563"
     id="namedview3701"
     showgrid="false"
     inkscape:zoom="9.886582"
     inkscape:cx="113.386"
     inkscape:cy="113.386"
     inkscape:window-x="0"
     inkscape:window-y="0"
     inkscape:window-maximized="1"
     inkscape:current-layer="g3707" /><g
     id="g3707"
     inkscape:groupmode="layer"
     inkscape:label="cesam_logo_def"
     transform="matrix(1.3333333,0,0,-1.3333333,0,226.772)"><g
       id="g3709"><g
         id="g3711"
         clip-path="url(#clipPath3715)"><g
           id="g3717"
           transform="translate(51.2405,60.3966)"><path
             d="m 0,0 c -0.562,0.259 -1.174,0.454 -1.835,0.583 -0.662,0.13 -1.273,0.259 -1.834,0.389 -0.561,0.13 -1.03,0.288 -1.403,0.474 -0.375,0.188 -0.561,0.468 -0.561,0.842 0,0.303 0.147,0.543 0.442,0.723 0.295,0.18 0.709,0.27 1.241,0.27 0.877,0 1.637,-0.183 2.277,-0.551 0.64,-0.367 1.054,-0.981 1.241,-1.845 L 1.316,1.036 V 4.813 H -0.303 C -0.36,4.555 -0.436,4.371 -0.529,4.264 -0.623,4.155 -0.755,4.102 -0.928,4.102 c -0.13,0 -0.306,0.046 -0.529,0.143 -0.224,0.095 -0.489,0.206 -0.798,0.331 -0.31,0.125 -0.674,0.236 -1.091,0.331 -0.418,0.096 -0.884,0.144 -1.403,0.144 -1.266,0 -2.245,-0.303 -2.935,-0.908 C -8.375,3.536 -8.72,2.736 -8.72,1.741 c 0,-0.865 0.226,-1.569 0.68,-2.109 0.453,-0.54 1.22,-0.955 2.298,-1.243 0.576,-0.16 1.141,-0.283 1.695,-0.368 0.554,-0.087 1.046,-0.18 1.478,-0.282 0.432,-0.101 0.777,-0.238 1.037,-0.411 0.259,-0.173 0.387,-0.432 0.387,-0.778 0,-0.332 -0.144,-0.606 -0.431,-0.822 -0.288,-0.217 -0.691,-0.325 -1.209,-0.325 -0.475,0 -0.946,0.054 -1.413,0.162 -0.468,0.108 -0.896,0.266 -1.285,0.475 -0.388,0.208 -0.716,0.464 -0.981,0.766 -0.267,0.302 -0.443,0.648 -0.53,1.036 -0.287,-0.014 -0.575,-0.029 -0.863,-0.043 -0.288,-0.015 -0.576,-0.036 -0.863,-0.066 v -3.906 h 1.748 c 0.072,0.504 0.245,0.756 0.518,0.756 0.1,0 0.202,-0.022 0.302,-0.064 0.101,-0.044 0.202,-0.087 0.302,-0.13 0.346,-0.188 0.791,-0.35 1.339,-0.487 0.546,-0.136 1.323,-0.204 2.33,-0.204 0.533,0 1.052,0.068 1.555,0.204 0.503,0.137 0.946,0.349 1.328,0.637 0.381,0.288 0.686,0.649 0.917,1.079 0.23,0.433 0.345,0.944 0.345,1.533 0,0.748 -0.188,1.345 -0.561,1.791 C 1.028,-0.611 0.561,-0.259 0,0"
             style="fill:#231f20;fill-opacity:1;fill-rule:nonzero;stroke:none"
             id="path3719"
             inkscape:connector-curvature="0" /></g><g
           id="g3721"
           transform="translate(59.4641,68.4473)"><path
             d="m 0,0 v -0.475 c 0,-0.619 -0.09,-1.122 -0.27,-1.51 -0.18,-0.389 -0.417,-0.692 -0.712,-0.907 -0.295,-0.215 -0.634,-0.367 -1.015,-0.454 -0.381,-0.086 -0.766,-0.143 -1.154,-0.172 v -1.316 h 1.856 v -6.368 c 0,-0.979 0.273,-1.752 0.82,-2.319 0.546,-0.57 1.489,-0.854 2.828,-0.854 0.59,0 1.09,0.073 1.5,0.216 0.41,0.144 0.741,0.349 0.993,0.616 0.251,0.266 0.431,0.582 0.539,0.949 0.108,0.367 0.162,0.781 0.162,1.241 v 0.669 H 4.274 v -1.036 c 0,-0.302 -0.058,-0.54 -0.173,-0.713 -0.115,-0.171 -0.324,-0.258 -0.626,-0.258 -0.302,0 -0.515,0.079 -0.637,0.237 -0.122,0.158 -0.183,0.403 -0.183,0.734 v 6.886 c 0.518,0 1,-0.019 1.446,-0.055 0.446,-0.035 0.871,-0.096 1.273,-0.182 l 0.108,1.834 H 2.655 v 3.388 z"
             style="fill:#231f20;fill-opacity:1;fill-rule:nonzero;stroke:none"
             id="path3723"
             inkscape:connector-curvature="0" /></g><g
           id="g3725"
           transform="translate(68.3509,65.21)"><path
             d="m 0,0 v -1.727 c 1.237,0 1.856,-0.324 1.856,-0.971 v -5.288 c 0,-1.122 0.27,-1.939 0.809,-2.45 0.54,-0.511 1.392,-0.766 2.558,-0.766 1.079,0 1.971,0.22 2.676,0.659 0.705,0.438 1.274,1.024 1.705,1.758 v -2.201 h 5.633 v 1.726 c -1.164,0 -1.747,0.324 -1.747,0.972 V 0 H 7.985 v -1.727 c 0.562,0 0.972,-0.083 1.231,-0.248 0.259,-0.166 0.388,-0.414 0.388,-0.745 V -6.151 C 9.36,-6.972 9.029,-7.619 8.612,-8.094 8.194,-8.568 7.684,-8.807 7.079,-8.807 6.59,-8.807 6.234,-8.598 6.011,-8.18 5.788,-7.764 5.676,-7.102 5.676,-6.194 V 0 Z"
             style="fill:#231f20;fill-opacity:1;fill-rule:nonzero;stroke:none"
             id="path3727"
             inkscape:connector-curvature="0" /></g><g
           id="g3729"
           transform="translate(94.699,57.1055)"><path
             d="m 0,0 c -0.346,-0.626 -0.964,-0.939 -1.857,-0.939 -0.877,0 -1.518,0.313 -1.92,0.939 -0.403,0.626 -0.604,1.571 -0.604,2.838 0,1.266 0.201,2.216 0.604,2.849 0.402,0.633 1.043,0.95 1.92,0.95 C -0.964,6.637 -0.346,6.32 0,5.687 0.345,5.054 0.519,4.104 0.519,2.838 0.519,1.571 0.345,0.626 0,0 m 4.145,-0.162 v 13.9 h -5.786 v -1.727 c 1.224,0 1.835,-0.323 1.835,-0.971 V 7.565 C -0.151,7.896 -0.594,8.141 -1.132,8.299 -1.673,8.457 -2.266,8.536 -2.913,8.536 -3.676,8.536 -4.385,8.432 -5.04,8.224 -5.695,8.015 -6.267,7.677 -6.755,7.209 -7.245,6.741 -7.63,6.133 -7.91,5.385 -8.19,4.637 -8.332,3.723 -8.332,2.644 c 0,-1.065 0.131,-1.968 0.39,-2.708 0.258,-0.743 0.607,-1.35 1.046,-1.825 0.439,-0.474 0.961,-0.82 1.565,-1.036 0.604,-0.216 1.252,-0.323 1.942,-0.323 0.951,0 1.799,0.176 2.547,0.528 0.748,0.353 1.295,0.896 1.641,1.629 l 0.15,-1.791 h 5.073 v 1.749 c -1.251,0 -1.877,0.323 -1.877,0.971"
             style="fill:#231f20;fill-opacity:1;fill-rule:nonzero;stroke:none"
             id="path3731"
             inkscape:connector-curvature="0" /></g><g
           id="g3733"
           transform="translate(111.8113,55.9932)"><path
             d="M 0,0 C -1.251,0 -1.863,0.323 -1.834,0.97 V 9.217 H -7.62 V 7.49 c 1.224,0 1.835,-0.33 1.835,-0.99 V 0.97 C -5.785,0.323 -6.396,0 -7.62,0 V -1.77 H 0 Z"
             style="fill:#231f20;fill-opacity:1;fill-rule:nonzero;stroke:none"
             id="path3735"
             inkscape:connector-curvature="0" /></g><g
           id="g3737"
           transform="translate(108.8435,70.6925)"><path
             d="m 0,0 c -0.267,0.115 -0.551,0.173 -0.853,0.173 -0.302,0 -0.583,-0.058 -0.841,-0.173 -0.26,-0.115 -0.49,-0.27 -0.691,-0.464 -0.203,-0.194 -0.36,-0.421 -0.474,-0.68 -0.117,-0.259 -0.174,-0.54 -0.174,-0.842 0,-0.302 0.057,-0.586 0.174,-0.852 0.114,-0.267 0.271,-0.501 0.474,-0.702 0.201,-0.201 0.431,-0.359 0.691,-0.475 0.258,-0.115 0.539,-0.172 0.841,-0.172 0.302,0 0.586,0.057 0.853,0.172 0.266,0.116 0.496,0.274 0.69,0.475 0.196,0.201 0.349,0.435 0.465,0.702 0.115,0.266 0.172,0.55 0.172,0.852 0,0.302 -0.057,0.583 -0.172,0.842 C 1.039,-0.885 0.886,-0.658 0.69,-0.464 0.496,-0.27 0.266,-0.115 0,0"
             style="fill:#231f20;fill-opacity:1;fill-rule:nonzero;stroke:none"
             id="path3739"
             inkscape:connector-curvature="0" /></g><g
           id="g3741"
           transform="translate(123.114,56.6622)"><path
             d="m 0,0 c -0.331,-0.604 -0.914,-0.906 -1.749,-0.906 -0.375,0 -0.694,0.057 -0.96,0.173 -0.267,0.115 -0.485,0.335 -0.659,0.658 -0.172,0.324 -0.301,0.769 -0.388,1.339 -0.087,0.567 -0.13,1.298 -0.13,2.19 0,1.295 0.183,2.22 0.551,2.774 0.367,0.553 0.939,0.831 1.716,0.831 0.345,0 0.647,-0.058 0.906,-0.173 C -0.454,6.771 -0.235,6.562 -0.055,6.26 0.125,5.958 0.263,5.544 0.355,5.019 0.449,4.493 0.496,3.821 0.496,3.001 0.496,1.604 0.33,0.605 0,0 M 2.677,7.771 C 2.13,8.217 1.489,8.53 0.755,8.71 c -0.734,0.18 -1.51,0.269 -2.33,0.269 -4.146,0 -6.217,-2.042 -6.217,-6.129 0,-1.122 0.161,-2.047 0.485,-2.774 0.325,-0.726 0.759,-1.302 1.306,-1.726 0.547,-0.425 1.184,-0.724 1.91,-0.896 0.727,-0.173 1.492,-0.259 2.3,-0.259 1.999,0 3.539,0.499 4.618,1.499 1.079,1.001 1.619,2.472 1.619,4.414 0,1.152 -0.159,2.105 -0.474,2.861 C 3.654,6.725 3.224,7.325 2.677,7.771"
             style="fill:#231f20;fill-opacity:1;fill-rule:nonzero;stroke:none"
             id="path3743"
             inkscape:connector-curvature="0" /></g><g
           id="g3745"
           transform="translate(54.4856,31.2159)"><path
             d="m 0,0 h -6.921 v 3.405 c 0,2.123 1.062,3.186 3.185,3.186 h 0.551 C -1.062,6.591 0,5.528 0,3.405 Z m -3.052,11.303 h -0.816 c -5.376,0 -8.097,-2.722 -8.097,-8.38 V -9.23 c 0,-5.092 2.721,-7.814 8.097,-7.814 h 0.816 c 5.375,0 8.096,2.722 8.096,8.097 V -8.54 H 0.133 v -0.606 c 0,-2.125 -1.062,-3.186 -3.185,-3.186 h -0.684 c -2.123,0 -3.185,1.061 -3.185,3.186 v 4.368 H 5.044 v 7.984 c 0,5.375 -2.721,8.097 -8.096,8.097"
             style="fill:#231f20;fill-opacity:1;fill-rule:nonzero;stroke:none"
             id="path3747"
             inkscape:connector-curvature="0" /></g><g
           id="g3749"
           transform="translate(83.7058,28.7579)"><path
             d="m 0,0 -5.956,3.299 c -1.39,0.766 -1.853,1.307 -1.853,2.722 v 0.397 c 0,1.532 0.702,2.398 2.137,2.639 0.276,0.046 0.576,0.071 0.907,0.071 h 0.861 c 2.051,0 3.044,-0.883 3.044,-2.71 V 6.151 5.162 H 3.145 4.103 V 6.69 c 0,4.655 -2.647,7.071 -7.941,7.071 h -0.861 c -2.352,0 -4.194,-0.466 -5.521,-1.392 -1.697,-1.183 -2.552,-3.118 -2.552,-5.796 V 5.715 c 0,-3.182 1.323,-4.654 4.169,-6.305 l 5.956,-3.299 c 1.24,-0.717 1.776,-1.544 1.84,-2.758 0.004,-0.082 0.013,-0.161 0.013,-0.247 v -0.349 c 0,-1.827 -0.993,-2.711 -3.044,-2.711 h -0.993 c -0.742,0 -1.343,0.117 -1.811,0.351 -0.826,0.414 -1.233,1.193 -1.233,2.36 v 1.256 h -4.963 v -1.529 c 0,-2.295 0.646,-4.043 1.933,-5.227 1.323,-1.219 3.324,-1.843 6.008,-1.843 h 0.993 c 5.36,0 8.073,2.416 8.073,7.188 v 1.093 c 0,0.954 -0.115,1.752 -0.352,2.45 C 3.264,-2.227 2.039,-1.155 0,0"
             style="fill:#231f20;fill-opacity:1;fill-rule:nonzero;stroke:none"
             id="path3751"
             inkscape:connector-curvature="0" /></g><g
           id="g3753"
           transform="translate(111.2117,20.6095)"><path
             d="m 0,0 c -1.648,-1.128 -3.032,-1.659 -4.549,-1.659 -1.582,0 -2.439,0.863 -2.439,2.589 v 1.346 c 0,2.058 0.593,2.988 2.439,3.717 L 0,7.586 Z m -3.032,21.909 h -0.923 c -5.34,0 -8.043,-2.722 -8.043,-8.096 v -0.408 h 4.879 v 0.607 c 0,2.123 1.054,3.252 3.164,3.252 h 0.791 C -1.055,17.264 0,16.135 0,14.012 V 12.231 L -6.724,9.909 c -3.824,-1.328 -5.274,-3.12 -5.274,-7.566 v -2.476 c 0,-3.982 1.846,-6.304 5.867,-6.304 2.901,0 4.746,1.327 6.131,2.655 V -5.87 h 5.01 v 19.683 c 0,5.374 -2.703,8.096 -8.042,8.096"
             style="fill:#231f20;fill-opacity:1;fill-rule:nonzero;stroke:none"
             id="path3755"
             inkscape:connector-curvature="0" /></g><g
           id="g3757"
           transform="translate(149.656,42.5186)"><path
             d="M 0,0 C -2.949,0 -4.35,-1.394 -6.159,-2.92 -7.098,-1.062 -9.126,0 -11.74,0 c -2.815,0 -4.072,-1.327 -5.546,-2.722 v 2.155 h -5.38 v -27.78 h 5.38 V -6.57 c 1.809,1.26 2.597,1.792 4.005,1.792 1.541,0 2.412,-0.797 2.412,-2.589 v -20.98 h 5.38 V -6.57 c 1.809,1.26 2.54,1.792 3.947,1.792 1.542,0 2.413,-0.797 2.413,-2.589 v -20.98 h 5.38 V -6.305 C 6.251,-2.39 3.953,0 0,0"
             style="fill:#231f20;fill-opacity:1;fill-rule:nonzero;stroke:none"
             id="path3759"
             inkscape:connector-curvature="0" /></g><g
           id="g3761"
           transform="translate(26.325,25.5108)"><path
             d="m 0,0 v -3.441 c 0,-2.124 -1.062,-3.186 -3.186,-3.186 h -0.735 c -2.124,0 -3.186,1.062 -3.186,3.186 V 9.11 c 0,2.123 1.062,3.186 3.186,3.186 h 0.669 c 2.124,0 3.186,-1.063 3.186,-3.186 V 5.669 l 4.742,4.743 v 0.32 c -0.009,0.346 -0.058,0.941 -0.239,1.615 -0.015,0.048 -0.025,0.099 -0.041,0.146 -0.039,0.132 -0.084,0.266 -0.134,0.402 -1.075,2.734 -3.506,4.113 -7.315,4.113 h -1.001 c -5.376,0 -8.096,-2.722 -8.096,-8.097 V -3.242 c 0,-5.375 2.72,-8.097 8.096,-8.097 h 0.935 c 4.661,0 7.314,2.059 7.939,6.109 0.031,0.234 0.038,0.372 0.038,0.372 z"
             style="fill:#231f20;fill-opacity:1;fill-rule:nonzero;stroke:none"
             id="path3763"
             inkscape:connector-curvature="0" /></g><g
           id="g3765"
           transform="translate(85.0408,96.314)"><path
             d="M 0,0 2.107,-2.136 C 3.114,-3.156 3.609,-4.181 3.63,-5.258 2.714,-6.316 1.422,-6.913 0,-6.913 c -1.423,0 -2.715,0.597 -3.63,1.655 0.02,1.077 0.515,2.102 1.522,3.122 z M 2.943,-7.664 C 2.265,-8.658 1.194,-9.227 0,-9.227 c -1.195,0 -2.266,0.569 -2.943,1.563 -0.219,0.382 -0.369,0.751 -0.486,1.116 0.973,-0.754 2.169,-1.184 3.429,-1.184 1.259,0 2.456,0.43 3.428,1.184 C 3.312,-6.913 3.161,-7.282 2.943,-7.664 m -7.614,-1.065 0.036,-0.057 c 1.043,-1.559 2.776,-2.49 4.635,-2.49 1.859,0 3.591,0.931 4.635,2.49 l 0.035,0.057 c 1.644,2.844 1.253,5.625 -1.132,8.042 L 0,2.897 -3.538,-0.687 c -2.385,-2.417 -2.777,-5.198 -1.133,-8.042"
             style="fill:#231f20;fill-opacity:1;fill-rule:nonzero;stroke:none"
             id="path3767"
             inkscape:connector-curvature="0" /></g><g
           id="g3769"
           transform="translate(94.7073,118.3243)"><path
             d="m 0,0 -9.202,-14.1 v 11.057 c 3.034,0.035 4.767,1.401 5.18,4.065 0.02,0.157 0.024,0.249 0.024,0.249 L -7.236,4.509 V 2.215 c 0,-1.416 -0.708,-2.123 -2.123,-2.123 H -9.85 c -1.416,0 -2.124,0.707 -2.124,2.123 v 8.368 c 0,1.415 0.708,2.123 2.124,2.123 h 0.446 c 1.416,0 2.124,-0.708 2.124,-2.123 V 8.289 l 3.161,3.161 v 0.214 c -0.006,0.231 -0.038,0.627 -0.159,1.076 -0.01,0.032 -0.017,0.067 -0.028,0.098 -0.026,0.088 -0.055,0.177 -0.089,0.267 -0.716,1.823 -2.337,2.742 -4.876,2.742 h -0.667 c -3.584,0 -5.398,-1.814 -5.398,-5.397 V 2.348 c 0,-3.515 1.756,-5.316 5.205,-5.384 V -14.1 L -19.333,0 c -3.666,6.501 -2.646,12.419 2.482,17.747 l 2.484,2.582 c 0.439,-0.098 0.881,-0.164 1.33,-0.164 h 6.741 c 0.459,0 0.899,0.067 1.331,0.162 l 2.483,-2.58 C 2.645,12.419 3.665,6.501 0,0 m 0.445,31.985 c 0,-0.589 -0.078,-1.219 -0.21,-1.86 -6.087,3.908 -13.717,3.908 -19.804,0 -0.132,0.641 -0.209,1.271 -0.209,1.86 3.061,2.121 6.586,3.181 10.111,3.181 3.525,0.001 7.05,-1.06 10.111,-3.181 z m -19.771,-2.83 c 5.906,3.925 13.413,3.925 19.319,0 0.025,-0.017 0.052,-0.031 0.078,-0.048 -0.105,-2.823 -1.929,-5.192 -4.411,-6.016 -0.013,-0.005 -0.025,-0.01 -0.038,-0.014 -0.597,-0.194 -1.229,-0.301 -1.887,-0.301 h -1.058 -4.688 -1.058 c -0.657,0 -1.29,0.107 -1.887,0.301 -0.013,0.004 -0.025,0.009 -0.038,0.014 -2.482,0.824 -4.305,3.193 -4.41,6.016 0.026,0.017 0.052,0.031 0.078,0.048 m 18.486,-9.701 -1.795,1.865 c 3.346,2.205 5.403,7.118 5.403,10.666 v 1.283 L 1.745,33.986 1.739,33.99 1.733,33.994 c -3.387,2.346 -7.329,3.586 -11.4,3.586 v 0 c -4.071,0 -8.013,-1.24 -11.4,-3.587 l -1.035,-0.716 v -1.292 c 0,-2.424 0.889,-5.232 2.376,-7.509 0.892,-1.366 1.919,-2.425 3.03,-3.155 l -1.798,-1.867 C -24.475,13.239 -25.458,6.09 -21.338,-1.22 l 0.039,-0.069 0.043,-0.065 9.667,-14.813 1.922,-2.946 1.923,2.946 9.666,14.813 0.043,0.065 0.039,0.069 C 6.125,6.09 5.142,13.239 -0.84,19.454"
             style="fill:#231f20;fill-opacity:1;fill-rule:nonzero;stroke:none"
             id="path3771"
             inkscape:connector-curvature="0" /></g></g></g></g></svg>