<?xml version="1.0" encoding="UTF-8" standalone="no"?>
<!-- Created with Inkscape (http://www.inkscape.org/) -->

<svg
   xmlns:dc="http://purl.org/dc/elements/1.1/"
   xmlns:cc="http://creativecommons.org/ns#"
   xmlns:rdf="http://www.w3.org/1999/02/22-rdf-syntax-ns#"
   xmlns:svg="http://www.w3.org/2000/svg"
   xmlns="http://www.w3.org/2000/svg"
   xmlns:sodipodi="http://sodipodi.sourceforge.net/DTD/sodipodi-0.dtd"
   xmlns:inkscape="http://www.inkscape.org/namespaces/inkscape"
   version="1.1"
   id="svg10"
   xml:space="preserve"
   width="226.772"
   height="226.772"
   viewBox="0 0 226.772 226.772"
   sodipodi:docname="cesam_beeldmerk_def.svg"
   inkscape:version="0.92.2 (5c3e80d, 2017-08-06)"><metadata
     id="metadata16"><rdf:RDF><cc:Work
         rdf:about=""><dc:format>image/svg+xml</dc:format><dc:type
           rdf:resource="http://purl.org/dc/dcmitype/StillImage" /><dc:title></dc:title></cc:Work></rdf:RDF></metadata><defs
     id="defs14"><clipPath
       clipPathUnits="userSpaceOnUse"
       id="clipPath26"><path
         d="M 0,170.079 H 170.079 V 0 H 0 Z"
         id="path24"
         inkscape:connector-curvature="0" /></clipPath></defs><sodipodi:namedview
     pagecolor="#ffffff"
     bordercolor="#666666"
     borderopacity="1"
     objecttolerance="10"
     gridtolerance="10"
     guidetolerance="10"
     inkscape:pageopacity="0"
     inkscape:pageshadow="2"
     inkscape:window-width="1076"
     inkscape:window-height="563"
     id="namedview12"
     showgrid="false"
     inkscape:zoom="9.886582"
     inkscape:cx="113.386"
     inkscape:cy="113.386"
     inkscape:window-x="0"
     inkscape:window-y="0"
     inkscape:window-maximized="1"
     inkscape:current-layer="g18" /><g
     id="g18"
     inkscape:groupmode="layer"
     inkscape:label="cesam_logo_def"
     transform="matrix(1.3333333,0,0,-1.3333333,0,226.772)"><g
       id="g20"><g
         id="g22"
         clip-path="url(#clipPath26)"><g
           id="g28"
           transform="translate(85.0397,36.7247)"><path
             d="m 0,0 4.216,-4.271 c 2.013,-2.041 3.003,-4.09 3.044,-6.245 -1.831,-2.117 -4.415,-3.31 -7.26,-3.31 -2.845,0 -5.43,1.193 -7.261,3.31 0.041,2.155 1.032,4.204 3.045,6.245 z M 5.886,-15.327 C 4.53,-17.315 2.389,-18.454 0,-18.454 c -2.39,0 -4.531,1.139 -5.887,3.127 -0.435,0.764 -0.737,1.503 -0.97,2.231 1.945,-1.508 4.338,-2.369 6.857,-2.369 2.519,0 4.911,0.861 6.856,2.369 -0.232,-0.728 -0.534,-1.467 -0.97,-2.231 m -15.228,-2.131 0.071,-0.114 c 2.087,-3.118 5.553,-4.98 9.271,-4.98 3.718,0 7.183,1.862 9.27,4.98 l 0.071,0.114 c 3.288,5.688 2.505,11.25 -2.266,16.084 L 0,5.795 -7.076,-1.374 c -4.771,-4.834 -5.554,-10.396 -2.266,-16.084"
             style="fill:#231f20;fill-opacity:1;fill-rule:nonzero;stroke:none"
             id="path30"
             inkscape:connector-curvature="0" /></g><g
           id="g32"
           transform="translate(104.3727,80.7452)"><path
             d="m 0,0 -18.404,-28.2 v 22.115 c 6.067,0.069 9.535,2.801 10.359,8.13 0.041,0.312 0.05,0.497 0.05,0.497 l -6.477,6.477 V 4.431 c 0,-2.831 -1.416,-4.247 -4.247,-4.247 H -19.7 c -2.831,0 -4.247,1.416 -4.247,4.247 v 16.734 c 0,2.832 1.416,4.248 4.247,4.248 h 0.892 c 2.831,0 4.247,-1.416 4.247,-4.248 v -4.587 l 6.324,6.323 v 0.427 c -0.013,0.462 -0.077,1.254 -0.319,2.153 -0.019,0.063 -0.035,0.132 -0.055,0.194 -0.052,0.177 -0.112,0.355 -0.179,0.536 -1.433,3.646 -4.674,5.484 -9.752,5.484 h -1.335 c -7.167,0 -10.795,-3.628 -10.795,-10.795 V 4.696 c 0,-7.029 3.512,-10.633 10.409,-10.768 V -28.2 L -38.667,0 c -7.33,13.003 -5.29,24.839 4.965,35.495 l 4.969,5.163 c 0.877,-0.195 1.761,-0.327 2.659,-0.327 h 13.481 c 0.918,0 1.799,0.133 2.662,0.324 l 4.966,-5.16 C 5.29,24.839 7.33,13.003 0,0 m 0.89,63.97 c 0,-1.178 -0.156,-2.438 -0.419,-3.72 -12.174,7.815 -27.435,7.815 -39.609,0 -0.263,1.282 -0.419,2.542 -0.419,3.72 6.123,4.242 13.173,6.363 20.224,6.363 7.05,0 14.1,-2.121 20.222,-6.362 z m -39.541,-5.659 c 11.81,7.85 26.826,7.85 38.636,0 0.051,-0.035 0.105,-0.063 0.157,-0.097 -0.21,-5.645 -3.858,-10.384 -8.822,-12.032 -0.025,-0.009 -0.05,-0.02 -0.076,-0.029 -1.193,-0.387 -2.459,-0.6 -3.773,-0.6 h -2.117 -9.375 -2.117 c -1.314,0 -2.58,0.213 -3.773,0.6 -0.026,0.009 -0.05,0.02 -0.076,0.029 -4.964,1.648 -8.611,6.387 -8.821,12.032 0.051,0.034 0.105,0.062 0.157,0.097 M -1.68,38.908 -5.27,42.638 C 1.423,47.048 5.536,56.875 5.536,63.97 v 2.566 l -2.047,1.436 -0.01,0.007 -0.013,0.008 c -6.774,4.693 -14.657,7.173 -22.799,7.173 -8.143,0 -16.026,-2.48 -22.801,-7.173 l -2.068,-1.433 V 63.97 c 0,-4.849 1.775,-10.463 4.75,-15.018 1.783,-2.731 3.839,-4.85 6.059,-6.309 l -3.594,-3.735 C -48.95,26.478 -50.917,12.18 -42.676,-2.439 l 0.078,-0.138 0.086,-0.132 19.333,-29.624 3.846,-5.893 3.845,5.893 19.333,29.624 0.087,0.132 0.077,0.138 c 8.242,14.619 6.274,28.917 -5.689,41.347"
             style="fill:#231f20;fill-opacity:1;fill-rule:nonzero;stroke:none"
             id="path34"
             inkscape:connector-curvature="0" /></g></g></g></g></svg>